<?xml version="1.0" encoding="utf-8"?>
<xmeml version="4">
  <!-- Exported by Descript -->
  <sequence id="Increase Engagement with Quality Audio - Storyy - TSTR">
    <duration>1361</duration>
    <name>Increase Engagement with Quality Audio - Storyy - TSTR</name>
    <width>1080</width>
    <height>1920</height>
    <rate>
      <timebase>30</timebase>
      <ntsc>TRUE</ntsc>
    </rate>
    <media>
      <video>
        <format>
          <samplecharacteristics>
            <pixelaspectratio>square</pixelaspectratio>
            <anamorphic>FALSE</anamorphic>
            <fielddominance>none</fielddominance>
            <colordepth>24</colordepth>
            <width>1080</width>
            <height>1920</height>
            <rate>
              <timebase>30</timebase>
              <ntsc>TRUE</ntsc>
            </rate>
          </samplecharacteristics>
        </format>
        <track>
          <clipitem id="clipitem-1">
            <name>c17c4b0c-82b4-4396-83b7-00d00639e3fc.mp4</name>
            <enabled>TRUE</enabled>
            <duration>81</duration>
            <start>0</start>
            <end>81</end>
            <in>75</in>
            <out>157</out>
            <file id="file-1">
              <name>c17c4b0c-82b4-4396-83b7-00d00639e3fc.mp4</name>
              <pathurl>c17c4b0c-82b4-4396-83b7-00d00639e3fc.mp4</pathurl>
              <duration>2011</duration>
              <width>1080</width>
              <height>1920</height>
              <rate>
                <timebase>30</timebase>
                <ntsc>TRUE</ntsc>
              </rate>
              <media>
                <video>
                  <samplecharacteristics>
                    <width>1080</width>
                    <height>1920</height>
                    <rate>
                      <timebase>30</timebase>
                      <ntsc>TRUE</ntsc>
                    </rate>
                    <anamorphic>FALSE</anamorphic>
                    <pixelaspectratio>square</pixelaspectratio>
                    <fielddominance>none</fielddominance>
                  </samplecharacteristics>
                </video>
                <audio>
                  <samplecharacteristics>
                    <depth>16</depth>
                    <samplerate>44100</samplerate>
                  </samplecharacteristics>
                  <channelcount>1</channelcount>
                </audio>
              </media>
            </file>
            <link>
              <linkclipref>clipitem-1</linkclipref>
              <mediatype>video</mediatype>
              <trackindex>1</trackindex>
              <clipindex>1</clipindex>
            </link>
            <link>
              <linkclipref>clipitem-2</linkclipref>
              <mediatype>audio</mediatype>
              <trackindex>1</trackindex>
              <clipindex>1</clipindex>
              <groupindex>1</groupindex>
            </link>
          </clipitem>
          <clipitem id="clipitem-3">
            <name>c17c4b0c-82b4-4396-83b7-00d00639e3fc.mp4</name>
            <enabled>TRUE</enabled>
            <duration>362</duration>
            <start>81</start>
            <end>444</end>
            <in>159</in>
            <out>521</out>
            <file id="file-1"/>
            <link>
              <linkclipref>clipitem-3</linkclipref>
              <mediatype>video</mediatype>
              <trackindex>1</trackindex>
              <clipindex>2</clipindex>
            </link>
            <link>
              <linkclipref>clipitem-4</linkclipref>
              <mediatype>audio</mediatype>
              <trackindex>1</trackindex>
              <clipindex>2</clipindex>
              <groupindex>1</groupindex>
            </link>
          </clipitem>
          <clipitem id="clipitem-5">
            <name>c17c4b0c-82b4-4396-83b7-00d00639e3fc.mp4</name>
            <enabled>TRUE</enabled>
            <duration>31</duration>
            <start>444</start>
            <end>475</end>
            <in>534</in>
            <out>565</out>
            <file id="file-1"/>
            <link>
              <linkclipref>clipitem-5</linkclipref>
              <mediatype>video</mediatype>
              <trackindex>1</trackindex>
              <clipindex>3</clipindex>
            </link>
            <link>
              <linkclipref>clipitem-6</linkclipref>
              <mediatype>audio</mediatype>
              <trackindex>1</trackindex>
              <clipindex>3</clipindex>
              <groupindex>1</groupindex>
            </link>
          </clipitem>
          <clipitem id="clipitem-7">
            <name>c17c4b0c-82b4-4396-83b7-00d00639e3fc.mp4</name>
            <enabled>TRUE</enabled>
            <duration>47</duration>
            <start>475</start>
            <end>522</end>
            <in>578</in>
            <out>625</out>
            <file id="file-1"/>
            <link>
              <linkclipref>clipitem-7</linkclipref>
              <mediatype>video</mediatype>
              <trackindex>1</trackindex>
              <clipindex>4</clipindex>
            </link>
            <link>
              <linkclipref>clipitem-8</linkclipref>
              <mediatype>audio</mediatype>
              <trackindex>1</trackindex>
              <clipindex>4</clipindex>
              <groupindex>1</groupindex>
            </link>
          </clipitem>
          <clipitem id="clipitem-9">
            <name>c17c4b0c-82b4-4396-83b7-00d00639e3fc.mp4</name>
            <enabled>TRUE</enabled>
            <duration>142</duration>
            <start>522</start>
            <end>665</end>
            <in>625</in>
            <out>768</out>
            <file id="file-1"/>
            <link>
              <linkclipref>clipitem-9</linkclipref>
              <mediatype>video</mediatype>
              <trackindex>1</trackindex>
              <clipindex>5</clipindex>
            </link>
            <link>
              <linkclipref>clipitem-10</linkclipref>
              <mediatype>audio</mediatype>
              <trackindex>1</trackindex>
              <clipindex>5</clipindex>
              <groupindex>1</groupindex>
            </link>
          </clipitem>
          <clipitem id="clipitem-11">
            <name>c17c4b0c-82b4-4396-83b7-00d00639e3fc.mp4</name>
            <enabled>TRUE</enabled>
            <duration>278</duration>
            <start>665</start>
            <end>944</end>
            <in>787</in>
            <out>1065</out>
            <file id="file-1"/>
            <link>
              <linkclipref>clipitem-11</linkclipref>
              <mediatype>video</mediatype>
              <trackindex>1</trackindex>
              <clipindex>6</clipindex>
            </link>
            <link>
              <linkclipref>clipitem-12</linkclipref>
              <mediatype>audio</mediatype>
              <trackindex>1</trackindex>
              <clipindex>6</clipindex>
              <groupindex>1</groupindex>
            </link>
          </clipitem>
          <clipitem id="clipitem-13">
            <name>c17c4b0c-82b4-4396-83b7-00d00639e3fc.mp4</name>
            <enabled>TRUE</enabled>
            <duration>31</duration>
            <start>944</start>
            <end>976</end>
            <in>1078</in>
            <out>1110</out>
            <file id="file-1"/>
            <link>
              <linkclipref>clipitem-13</linkclipref>
              <mediatype>video</mediatype>
              <trackindex>1</trackindex>
              <clipindex>7</clipindex>
            </link>
            <link>
              <linkclipref>clipitem-14</linkclipref>
              <mediatype>audio</mediatype>
              <trackindex>1</trackindex>
              <clipindex>7</clipindex>
              <groupindex>1</groupindex>
            </link>
          </clipitem>
          <clipitem id="clipitem-15">
            <name>c17c4b0c-82b4-4396-83b7-00d00639e3fc.mp4</name>
            <enabled>TRUE</enabled>
            <duration>51</duration>
            <start>976</start>
            <end>1027</end>
            <in>1119</in>
            <out>1171</out>
            <file id="file-1"/>
            <link>
              <linkclipref>clipitem-15</linkclipref>
              <mediatype>video</mediatype>
              <trackindex>1</trackindex>
              <clipindex>8</clipindex>
            </link>
            <link>
              <linkclipref>clipitem-16</linkclipref>
              <mediatype>audio</mediatype>
              <trackindex>1</trackindex>
              <clipindex>8</clipindex>
              <groupindex>1</groupindex>
            </link>
          </clipitem>
          <clipitem id="clipitem-17">
            <name>c17c4b0c-82b4-4396-83b7-00d00639e3fc.mp4</name>
            <enabled>TRUE</enabled>
            <duration>182</duration>
            <start>1027</start>
            <end>1210</end>
            <in>1295</in>
            <out>1477</out>
            <file id="file-1"/>
            <link>
              <linkclipref>clipitem-17</linkclipref>
              <mediatype>video</mediatype>
              <trackindex>1</trackindex>
              <clipindex>9</clipindex>
            </link>
            <link>
              <linkclipref>clipitem-18</linkclipref>
              <mediatype>audio</mediatype>
              <trackindex>1</trackindex>
              <clipindex>9</clipindex>
              <groupindex>1</groupindex>
            </link>
          </clipitem>
          <clipitem id="clipitem-19">
            <name>c17c4b0c-82b4-4396-83b7-00d00639e3fc.mp4</name>
            <enabled>TRUE</enabled>
            <duration>66</duration>
            <start>1210</start>
            <end>1276</end>
            <in>1614</in>
            <out>1681</out>
            <file id="file-1"/>
            <link>
              <linkclipref>clipitem-19</linkclipref>
              <mediatype>video</mediatype>
              <trackindex>1</trackindex>
              <clipindex>10</clipindex>
            </link>
            <link>
              <linkclipref>clipitem-20</linkclipref>
              <mediatype>audio</mediatype>
              <trackindex>1</trackindex>
              <clipindex>10</clipindex>
              <groupindex>1</groupindex>
            </link>
          </clipitem>
          <clipitem id="clipitem-21">
            <name>c17c4b0c-82b4-4396-83b7-00d00639e3fc.mp4</name>
            <enabled>TRUE</enabled>
            <duration>41</duration>
            <start>1276</start>
            <end>1318</end>
            <in>1874</in>
            <out>1916</out>
            <file id="file-1"/>
            <link>
              <linkclipref>clipitem-21</linkclipref>
              <mediatype>video</mediatype>
              <trackindex>1</trackindex>
              <clipindex>11</clipindex>
            </link>
            <link>
              <linkclipref>clipitem-22</linkclipref>
              <mediatype>audio</mediatype>
              <trackindex>1</trackindex>
              <clipindex>11</clipindex>
              <groupindex>1</groupindex>
            </link>
          </clipitem>
          <clipitem id="clipitem-23">
            <name>c17c4b0c-82b4-4396-83b7-00d00639e3fc.mp4</name>
            <enabled>TRUE</enabled>
            <duration>43</duration>
            <start>1318</start>
            <end>1361</end>
            <in>1916</in>
            <out>1959</out>
            <file id="file-1"/>
            <link>
              <linkclipref>clipitem-23</linkclipref>
              <mediatype>video</mediatype>
              <trackindex>1</trackindex>
              <clipindex>12</clipindex>
            </link>
            <link>
              <linkclipref>clipitem-24</linkclipref>
              <mediatype>audio</mediatype>
              <trackindex>1</trackindex>
              <clipindex>12</clipindex>
              <groupindex>1</groupindex>
            </link>
          </clipitem>
        </track>
      </video>
      <audio>
        <numOutputChannels>2</numOutputChannels>
        <format>
          <samplecharacteristics>
            <depth>16</depth>
            <samplerate>44100</samplerate>
          </samplecharacteristics>
        </format>
        <outputs>
          <group>
            <index>1</index>
            <numchannels>1</numchannels>
            <downmix>0</downmix>
            <channel>
              <index>1</index>
            </channel>
          </group>
          <group>
            <index>2</index>
            <numchannels>1</numchannels>
            <downmix>0</downmix>
            <channel>
              <index>2</index>
            </channel>
          </group>
        </outputs>
        <track>
          <clipitem id="clipitem-2">
            <name>c17c4b0c-82b4-4396-83b7-00d00639e3fc.mp4</name>
            <enabled>TRUE</enabled>
            <duration>81</duration>
            <start>0</start>
            <end>81</end>
            <in>75</in>
            <out>157</out>
            <filter>
              <effect>
                <name>Audio Levels</name>
                <effectid>audiolevels</effectid>
                <effectcategory>audiolevels</effectcategory>
                <effecttype>audiolevels</effecttype>
                <mediatype>audio</mediatype>
                <parameter>
                  <parameterid>level</parameterid>
                  <name>Level</name>
                  <value>0.7413102413009174</value>
                </parameter>
              </effect>
            </filter>
            <file id="file-1"/>
            <link>
              <linkclipref>clipitem-1</linkclipref>
              <mediatype>video</mediatype>
              <trackindex>1</trackindex>
              <clipindex>1</clipindex>
            </link>
            <link>
              <linkclipref>clipitem-2</linkclipref>
              <mediatype>audio</mediatype>
              <trackindex>1</trackindex>
              <clipindex>1</clipindex>
              <groupindex>1</groupindex>
            </link>
          </clipitem>
          <clipitem id="clipitem-4">
            <name>c17c4b0c-82b4-4396-83b7-00d00639e3fc.mp4</name>
            <enabled>TRUE</enabled>
            <duration>362</duration>
            <start>81</start>
            <end>444</end>
            <in>159</in>
            <out>521</out>
            <filter>
              <effect>
                <name>Audio Levels</name>
                <effectid>audiolevels</effectid>
                <effectcategory>audiolevels</effectcategory>
                <effecttype>audiolevels</effecttype>
                <mediatype>audio</mediatype>
                <parameter>
                  <parameterid>level</parameterid>
                  <name>Level</name>
                  <value>0.7413102413009174</value>
                </parameter>
              </effect>
            </filter>
            <file id="file-1"/>
            <link>
              <linkclipref>clipitem-3</linkclipref>
              <mediatype>video</mediatype>
              <trackindex>1</trackindex>
              <clipindex>2</clipindex>
            </link>
            <link>
              <linkclipref>clipitem-4</linkclipref>
              <mediatype>audio</mediatype>
              <trackindex>1</trackindex>
              <clipindex>2</clipindex>
              <groupindex>1</groupindex>
            </link>
          </clipitem>
          <clipitem id="clipitem-6">
            <name>c17c4b0c-82b4-4396-83b7-00d00639e3fc.mp4</name>
            <enabled>TRUE</enabled>
            <duration>31</duration>
            <start>444</start>
            <end>475</end>
            <in>534</in>
            <out>565</out>
            <filter>
              <effect>
                <name>Audio Levels</name>
                <effectid>audiolevels</effectid>
                <effectcategory>audiolevels</effectcategory>
                <effecttype>audiolevels</effecttype>
                <mediatype>audio</mediatype>
                <parameter>
                  <parameterid>level</parameterid>
                  <name>Level</name>
                  <value>0.7413102413009174</value>
                </parameter>
              </effect>
            </filter>
            <file id="file-1"/>
            <link>
              <linkclipref>clipitem-5</linkclipref>
              <mediatype>video</mediatype>
              <trackindex>1</trackindex>
              <clipindex>3</clipindex>
            </link>
            <link>
              <linkclipref>clipitem-6</linkclipref>
              <mediatype>audio</mediatype>
              <trackindex>1</trackindex>
              <clipindex>3</clipindex>
              <groupindex>1</groupindex>
            </link>
          </clipitem>
          <clipitem id="clipitem-8">
            <name>c17c4b0c-82b4-4396-83b7-00d00639e3fc.mp4</name>
            <enabled>TRUE</enabled>
            <duration>47</duration>
            <start>475</start>
            <end>522</end>
            <in>578</in>
            <out>625</out>
            <filter>
              <effect>
                <name>Audio Levels</name>
                <effectid>audiolevels</effectid>
                <effectcategory>audiolevels</effectcategory>
                <effecttype>audiolevels</effecttype>
                <mediatype>audio</mediatype>
                <parameter>
                  <parameterid>level</parameterid>
                  <name>Level</name>
                  <value>0.7413102413009174</value>
                </parameter>
              </effect>
            </filter>
            <file id="file-1"/>
            <link>
              <linkclipref>clipitem-7</linkclipref>
              <mediatype>video</mediatype>
              <trackindex>1</trackindex>
              <clipindex>4</clipindex>
            </link>
            <link>
              <linkclipref>clipitem-8</linkclipref>
              <mediatype>audio</mediatype>
              <trackindex>1</trackindex>
              <clipindex>4</clipindex>
              <groupindex>1</groupindex>
            </link>
          </clipitem>
          <clipitem id="clipitem-10">
            <name>c17c4b0c-82b4-4396-83b7-00d00639e3fc.mp4</name>
            <enabled>TRUE</enabled>
            <duration>142</duration>
            <start>522</start>
            <end>665</end>
            <in>625</in>
            <out>768</out>
            <filter>
              <effect>
                <name>Audio Levels</name>
                <effectid>audiolevels</effectid>
                <effectcategory>audiolevels</effectcategory>
                <effecttype>audiolevels</effecttype>
                <mediatype>audio</mediatype>
                <parameter>
                  <parameterid>level</parameterid>
                  <name>Level</name>
                  <value>0.7413102413009174</value>
                </parameter>
              </effect>
            </filter>
            <file id="file-1"/>
            <link>
              <linkclipref>clipitem-9</linkclipref>
              <mediatype>video</mediatype>
              <trackindex>1</trackindex>
              <clipindex>5</clipindex>
            </link>
            <link>
              <linkclipref>clipitem-10</linkclipref>
              <mediatype>audio</mediatype>
              <trackindex>1</trackindex>
              <clipindex>5</clipindex>
              <groupindex>1</groupindex>
            </link>
          </clipitem>
          <clipitem id="clipitem-12">
            <name>c17c4b0c-82b4-4396-83b7-00d00639e3fc.mp4</name>
            <enabled>TRUE</enabled>
            <duration>278</duration>
            <start>665</start>
            <end>944</end>
            <in>787</in>
            <out>1065</out>
            <filter>
              <effect>
                <name>Audio Levels</name>
                <effectid>audiolevels</effectid>
                <effectcategory>audiolevels</effectcategory>
                <effecttype>audiolevels</effecttype>
                <mediatype>audio</mediatype>
                <parameter>
                  <parameterid>level</parameterid>
                  <name>Level</name>
                  <value>0.7413102413009174</value>
                </parameter>
              </effect>
            </filter>
            <file id="file-1"/>
            <link>
              <linkclipref>clipitem-11</linkclipref>
              <mediatype>video</mediatype>
              <trackindex>1</trackindex>
              <clipindex>6</clipindex>
            </link>
            <link>
              <linkclipref>clipitem-12</linkclipref>
              <mediatype>audio</mediatype>
              <trackindex>1</trackindex>
              <clipindex>6</clipindex>
              <groupindex>1</groupindex>
            </link>
          </clipitem>
          <clipitem id="clipitem-14">
            <name>c17c4b0c-82b4-4396-83b7-00d00639e3fc.mp4</name>
            <enabled>TRUE</enabled>
            <duration>31</duration>
            <start>944</start>
            <end>976</end>
            <in>1078</in>
            <out>1110</out>
            <filter>
              <effect>
                <name>Audio Levels</name>
                <effectid>audiolevels</effectid>
                <effectcategory>audiolevels</effectcategory>
                <effecttype>audiolevels</effecttype>
                <mediatype>audio</mediatype>
                <parameter>
                  <parameterid>level</parameterid>
                  <name>Level</name>
                  <value>0.7413102413009174</value>
                </parameter>
              </effect>
            </filter>
            <file id="file-1"/>
            <link>
              <linkclipref>clipitem-13</linkclipref>
              <mediatype>video</mediatype>
              <trackindex>1</trackindex>
              <clipindex>7</clipindex>
            </link>
            <link>
              <linkclipref>clipitem-14</linkclipref>
              <mediatype>audio</mediatype>
              <trackindex>1</trackindex>
              <clipindex>7</clipindex>
              <groupindex>1</groupindex>
            </link>
          </clipitem>
          <clipitem id="clipitem-16">
            <name>c17c4b0c-82b4-4396-83b7-00d00639e3fc.mp4</name>
            <enabled>TRUE</enabled>
            <duration>51</duration>
            <start>976</start>
            <end>1027</end>
            <in>1119</in>
            <out>1171</out>
            <filter>
              <effect>
                <name>Audio Levels</name>
                <effectid>audiolevels</effectid>
                <effectcategory>audiolevels</effectcategory>
                <effecttype>audiolevels</effecttype>
                <mediatype>audio</mediatype>
                <parameter>
                  <parameterid>level</parameterid>
                  <name>Level</name>
                  <value>0.7413102413009174</value>
                </parameter>
              </effect>
            </filter>
            <file id="file-1"/>
            <link>
              <linkclipref>clipitem-15</linkclipref>
              <mediatype>video</mediatype>
              <trackindex>1</trackindex>
              <clipindex>8</clipindex>
            </link>
            <link>
              <linkclipref>clipitem-16</linkclipref>
              <mediatype>audio</mediatype>
              <trackindex>1</trackindex>
              <clipindex>8</clipindex>
              <groupindex>1</groupindex>
            </link>
          </clipitem>
          <clipitem id="clipitem-18">
            <name>c17c4b0c-82b4-4396-83b7-00d00639e3fc.mp4</name>
            <enabled>TRUE</enabled>
            <duration>182</duration>
            <start>1027</start>
            <end>1210</end>
            <in>1295</in>
            <out>1477</out>
            <filter>
              <effect>
                <name>Audio Levels</name>
                <effectid>audiolevels</effectid>
                <effectcategory>audiolevels</effectcategory>
                <effecttype>audiolevels</effecttype>
                <mediatype>audio</mediatype>
                <parameter>
                  <parameterid>level</parameterid>
                  <name>Level</name>
                  <value>0.7413102413009174</value>
                </parameter>
              </effect>
            </filter>
            <file id="file-1"/>
            <link>
              <linkclipref>clipitem-17</linkclipref>
              <mediatype>video</mediatype>
              <trackindex>1</trackindex>
              <clipindex>9</clipindex>
            </link>
            <link>
              <linkclipref>clipitem-18</linkclipref>
              <mediatype>audio</mediatype>
              <trackindex>1</trackindex>
              <clipindex>9</clipindex>
              <groupindex>1</groupindex>
            </link>
          </clipitem>
          <clipitem id="clipitem-20">
            <name>c17c4b0c-82b4-4396-83b7-00d00639e3fc.mp4</name>
            <enabled>TRUE</enabled>
            <duration>66</duration>
            <start>1210</start>
            <end>1276</end>
            <in>1614</in>
            <out>1681</out>
            <filter>
              <effect>
                <name>Audio Levels</name>
                <effectid>audiolevels</effectid>
                <effectcategory>audiolevels</effectcategory>
                <effecttype>audiolevels</effecttype>
                <mediatype>audio</mediatype>
                <parameter>
                  <parameterid>level</parameterid>
                  <name>Level</name>
                  <value>0.7413102413009174</value>
                </parameter>
              </effect>
            </filter>
            <file id="file-1"/>
            <link>
              <linkclipref>clipitem-19</linkclipref>
              <mediatype>video</mediatype>
              <trackindex>1</trackindex>
              <clipindex>10</clipindex>
            </link>
            <link>
              <linkclipref>clipitem-20</linkclipref>
              <mediatype>audio</mediatype>
              <trackindex>1</trackindex>
              <clipindex>10</clipindex>
              <groupindex>1</groupindex>
            </link>
          </clipitem>
          <clipitem id="clipitem-22">
            <name>c17c4b0c-82b4-4396-83b7-00d00639e3fc.mp4</name>
            <enabled>TRUE</enabled>
            <duration>41</duration>
            <start>1276</start>
            <end>1318</end>
            <in>1874</in>
            <out>1916</out>
            <filter>
              <effect>
                <name>Audio Levels</name>
                <effectid>audiolevels</effectid>
                <effectcategory>audiolevels</effectcategory>
                <effecttype>audiolevels</effecttype>
                <mediatype>audio</mediatype>
                <parameter>
                  <parameterid>level</parameterid>
                  <name>Level</name>
                  <value>0.7413102413009174</value>
                </parameter>
              </effect>
            </filter>
            <file id="file-1"/>
            <link>
              <linkclipref>clipitem-21</linkclipref>
              <mediatype>video</mediatype>
              <trackindex>1</trackindex>
              <clipindex>11</clipindex>
            </link>
            <link>
              <linkclipref>clipitem-22</linkclipref>
              <mediatype>audio</mediatype>
              <trackindex>1</trackindex>
              <clipindex>11</clipindex>
              <groupindex>1</groupindex>
            </link>
          </clipitem>
          <clipitem id="clipitem-24">
            <name>c17c4b0c-82b4-4396-83b7-00d00639e3fc.mp4</name>
            <enabled>TRUE</enabled>
            <duration>43</duration>
            <start>1318</start>
            <end>1361</end>
            <in>1916</in>
            <out>1959</out>
            <filter>
              <effect>
                <name>Audio Levels</name>
                <effectid>audiolevels</effectid>
                <effectcategory>audiolevels</effectcategory>
                <effecttype>audiolevels</effecttype>
                <mediatype>audio</mediatype>
                <parameter>
                  <parameterid>level</parameterid>
                  <name>Level</name>
                  <value>0.7413102413009174</value>
                </parameter>
              </effect>
            </filter>
            <file id="file-1"/>
            <link>
              <linkclipref>clipitem-23</linkclipref>
              <mediatype>video</mediatype>
              <trackindex>1</trackindex>
              <clipindex>12</clipindex>
            </link>
            <link>
              <linkclipref>clipitem-24</linkclipref>
              <mediatype>audio</mediatype>
              <trackindex>1</trackindex>
              <clipindex>12</clipindex>
              <groupindex>1</groupindex>
            </link>
          </clipitem>
        </track>
      </audio>
    </media>
  </sequence>
</xmeml>