<?xml version="1.0" encoding="utf-8"?>
<xmeml version="4">
  <sequence id="sequence-1">
    <name>temp%2F3e8dacd0-e1e4-4a95-849e-b723280f8811</name>
    <rate>
      <timebase>30</timebase>
      <ntsc>TRUE</ntsc>
    </rate>
    <media>
      <video>
        <format>
          <samplecharacteristics>
            <width>2160</width>
            <height>3840</height>
            <anamorphic>FALSE</anamorphic>
            <pixelaspectratio>square</pixelaspectratio>
            <fielddominance>none</fielddominance>
            <colordepth>24</colordepth>
            <rate>
              <timebase>30</timebase>
              <ntsc>TRUE</ntsc>
            </rate>
          </samplecharacteristics>
        </format>
        <track>
          <clipitem id="clipitem-1">
            <name>temp%2F3e8dacd0-e1e4-4a95-849e-b723280f8811.mp4</name>
            <enabled>TRUE</enabled>
            <duration>2</duration>
            <start>0</start>
            <end>2</end>
            <in>17</in>
            <out>19</out>
            <file id="file-1">
              <name>temp%2F3e8dacd0-e1e4-4a95-849e-b723280f8811.mp4</name>
              <pathurl>temp%2F3e8dacd0-e1e4-4a95-849e-b723280f8811.mp4</pathurl>
              <duration>1443</duration>
              <rate>
                <timebase>30</timebase>
                <ntsc>TRUE</ntsc>
              </rate>
              <media>
                <video>
                  <samplecharacteristics>
                    <width>2160</width>
                    <height>3840</height>
                  </samplecharacteristics>
                </video>
                <audio>
                  <samplecharacteristics>
                    <depth>16</depth>
                    <samplerate>44100</samplerate>
                  </samplecharacteristics>
                  <channelcount>1</channelcount>
                </audio>
              </media>
            </file>
            <link>
              <linkclipref>clipitem-1</linkclipref>
              <mediatype>video</mediatype>
              <trackindex>1</trackindex>
              <clipindex>1</clipindex>
            </link>
            <link>
              <linkclipref>clipitem-2</linkclipref>
              <mediatype>audio</mediatype>
              <trackindex>1</trackindex>
              <clipindex>1</clipindex>
              <groupindex>1</groupindex>
            </link>
          </clipitem>
          <clipitem id="clipitem-3">
            <name>temp%2F3e8dacd0-e1e4-4a95-849e-b723280f8811.mp4</name>
            <enabled>TRUE</enabled>
            <duration>132</duration>
            <start>2</start>
            <end>134</end>
            <in>72</in>
            <out>204</out>
            <file id="file-1">
              <name>temp%2F3e8dacd0-e1e4-4a95-849e-b723280f8811.mp4</name>
              <pathurl>temp%2F3e8dacd0-e1e4-4a95-849e-b723280f8811.mp4</pathurl>
              <duration>1443</duration>
              <rate>
                <timebase>30</timebase>
                <ntsc>TRUE</ntsc>
              </rate>
              <media>
                <video>
                  <samplecharacteristics>
                    <width>2160</width>
                    <height>3840</height>
                  </samplecharacteristics>
                </video>
                <audio>
                  <samplecharacteristics>
                    <depth>16</depth>
                    <samplerate>44100</samplerate>
                  </samplecharacteristics>
                  <channelcount>1</channelcount>
                </audio>
              </media>
            </file>
            <link>
              <linkclipref>clipitem-3</linkclipref>
              <mediatype>video</mediatype>
              <trackindex>1</trackindex>
              <clipindex>2</clipindex>
            </link>
            <link>
              <linkclipref>clipitem-4</linkclipref>
              <mediatype>audio</mediatype>
              <trackindex>1</trackindex>
              <clipindex>2</clipindex>
              <groupindex>1</groupindex>
            </link>
          </clipitem>
          <clipitem id="clipitem-5">
            <name>temp%2F3e8dacd0-e1e4-4a95-849e-b723280f8811.mp4</name>
            <enabled>TRUE</enabled>
            <duration>114</duration>
            <start>134</start>
            <end>248</end>
            <in>246</in>
            <out>360</out>
            <file id="file-1">
              <name>temp%2F3e8dacd0-e1e4-4a95-849e-b723280f8811.mp4</name>
              <pathurl>temp%2F3e8dacd0-e1e4-4a95-849e-b723280f8811.mp4</pathurl>
              <duration>1443</duration>
              <rate>
                <timebase>30</timebase>
                <ntsc>TRUE</ntsc>
              </rate>
              <media>
                <video>
                  <samplecharacteristics>
                    <width>2160</width>
                    <height>3840</height>
                  </samplecharacteristics>
                </video>
                <audio>
                  <samplecharacteristics>
                    <depth>16</depth>
                    <samplerate>44100</samplerate>
                  </samplecharacteristics>
                  <channelcount>1</channelcount>
                </audio>
              </media>
            </file>
            <link>
              <linkclipref>clipitem-5</linkclipref>
              <mediatype>video</mediatype>
              <trackindex>1</trackindex>
              <clipindex>3</clipindex>
            </link>
            <link>
              <linkclipref>clipitem-6</linkclipref>
              <mediatype>audio</mediatype>
              <trackindex>1</trackindex>
              <clipindex>3</clipindex>
              <groupindex>1</groupindex>
            </link>
          </clipitem>
          <clipitem id="clipitem-7">
            <name>temp%2F3e8dacd0-e1e4-4a95-849e-b723280f8811.mp4</name>
            <enabled>TRUE</enabled>
            <duration>203</duration>
            <start>248</start>
            <end>451</end>
            <in>391</in>
            <out>594</out>
            <file id="file-1">
              <name>temp%2F3e8dacd0-e1e4-4a95-849e-b723280f8811.mp4</name>
              <pathurl>temp%2F3e8dacd0-e1e4-4a95-849e-b723280f8811.mp4</pathurl>
              <duration>1443</duration>
              <rate>
                <timebase>30</timebase>
                <ntsc>TRUE</ntsc>
              </rate>
              <media>
                <video>
                  <samplecharacteristics>
                    <width>2160</width>
                    <height>3840</height>
                  </samplecharacteristics>
                </video>
                <audio>
                  <samplecharacteristics>
                    <depth>16</depth>
                    <samplerate>44100</samplerate>
                  </samplecharacteristics>
                  <channelcount>1</channelcount>
                </audio>
              </media>
            </file>
            <link>
              <linkclipref>clipitem-7</linkclipref>
              <mediatype>video</mediatype>
              <trackindex>1</trackindex>
              <clipindex>4</clipindex>
            </link>
            <link>
              <linkclipref>clipitem-8</linkclipref>
              <mediatype>audio</mediatype>
              <trackindex>1</trackindex>
              <clipindex>4</clipindex>
              <groupindex>1</groupindex>
            </link>
          </clipitem>
          <clipitem id="clipitem-9">
            <name>temp%2F3e8dacd0-e1e4-4a95-849e-b723280f8811.mp4</name>
            <enabled>TRUE</enabled>
            <duration>141</duration>
            <start>451</start>
            <end>592</end>
            <in>617</in>
            <out>758</out>
            <file id="file-1">
              <name>temp%2F3e8dacd0-e1e4-4a95-849e-b723280f8811.mp4</name>
              <pathurl>temp%2F3e8dacd0-e1e4-4a95-849e-b723280f8811.mp4</pathurl>
              <duration>1443</duration>
              <rate>
                <timebase>30</timebase>
                <ntsc>TRUE</ntsc>
              </rate>
              <media>
                <video>
                  <samplecharacteristics>
                    <width>2160</width>
                    <height>3840</height>
                  </samplecharacteristics>
                </video>
                <audio>
                  <samplecharacteristics>
                    <depth>16</depth>
                    <samplerate>44100</samplerate>
                  </samplecharacteristics>
                  <channelcount>1</channelcount>
                </audio>
              </media>
            </file>
            <link>
              <linkclipref>clipitem-9</linkclipref>
              <mediatype>video</mediatype>
              <trackindex>1</trackindex>
              <clipindex>5</clipindex>
            </link>
            <link>
              <linkclipref>clipitem-10</linkclipref>
              <mediatype>audio</mediatype>
              <trackindex>1</trackindex>
              <clipindex>5</clipindex>
              <groupindex>1</groupindex>
            </link>
          </clipitem>
          <clipitem id="clipitem-11">
            <name>temp%2F3e8dacd0-e1e4-4a95-849e-b723280f8811.mp4</name>
            <enabled>TRUE</enabled>
            <duration>26</duration>
            <start>592</start>
            <end>618</end>
            <in>770</in>
            <out>796</out>
            <file id="file-1">
              <name>temp%2F3e8dacd0-e1e4-4a95-849e-b723280f8811.mp4</name>
              <pathurl>temp%2F3e8dacd0-e1e4-4a95-849e-b723280f8811.mp4</pathurl>
              <duration>1443</duration>
              <rate>
                <timebase>30</timebase>
                <ntsc>TRUE</ntsc>
              </rate>
              <media>
                <video>
                  <samplecharacteristics>
                    <width>2160</width>
                    <height>3840</height>
                  </samplecharacteristics>
                </video>
                <audio>
                  <samplecharacteristics>
                    <depth>16</depth>
                    <samplerate>44100</samplerate>
                  </samplecharacteristics>
                  <channelcount>1</channelcount>
                </audio>
              </media>
            </file>
            <link>
              <linkclipref>clipitem-11</linkclipref>
              <mediatype>video</mediatype>
              <trackindex>1</trackindex>
              <clipindex>6</clipindex>
            </link>
            <link>
              <linkclipref>clipitem-12</linkclipref>
              <mediatype>audio</mediatype>
              <trackindex>1</trackindex>
              <clipindex>6</clipindex>
              <groupindex>1</groupindex>
            </link>
          </clipitem>
          <clipitem id="clipitem-13">
            <name>temp%2F3e8dacd0-e1e4-4a95-849e-b723280f8811.mp4</name>
            <enabled>TRUE</enabled>
            <duration>130</duration>
            <start>618</start>
            <end>748</end>
            <in>837</in>
            <out>967</out>
            <file id="file-1">
              <name>temp%2F3e8dacd0-e1e4-4a95-849e-b723280f8811.mp4</name>
              <pathurl>temp%2F3e8dacd0-e1e4-4a95-849e-b723280f8811.mp4</pathurl>
              <duration>1443</duration>
              <rate>
                <timebase>30</timebase>
                <ntsc>TRUE</ntsc>
              </rate>
              <media>
                <video>
                  <samplecharacteristics>
                    <width>2160</width>
                    <height>3840</height>
                  </samplecharacteristics>
                </video>
                <audio>
                  <samplecharacteristics>
                    <depth>16</depth>
                    <samplerate>44100</samplerate>
                  </samplecharacteristics>
                  <channelcount>1</channelcount>
                </audio>
              </media>
            </file>
            <link>
              <linkclipref>clipitem-13</linkclipref>
              <mediatype>video</mediatype>
              <trackindex>1</trackindex>
              <clipindex>7</clipindex>
            </link>
            <link>
              <linkclipref>clipitem-14</linkclipref>
              <mediatype>audio</mediatype>
              <trackindex>1</trackindex>
              <clipindex>7</clipindex>
              <groupindex>1</groupindex>
            </link>
          </clipitem>
          <clipitem id="clipitem-15">
            <name>temp%2F3e8dacd0-e1e4-4a95-849e-b723280f8811.mp4</name>
            <enabled>TRUE</enabled>
            <duration>128</duration>
            <start>748</start>
            <end>876</end>
            <in>1096</in>
            <out>1224</out>
            <file id="file-1">
              <name>temp%2F3e8dacd0-e1e4-4a95-849e-b723280f8811.mp4</name>
              <pathurl>temp%2F3e8dacd0-e1e4-4a95-849e-b723280f8811.mp4</pathurl>
              <duration>1443</duration>
              <rate>
                <timebase>30</timebase>
                <ntsc>TRUE</ntsc>
              </rate>
              <media>
                <video>
                  <samplecharacteristics>
                    <width>2160</width>
                    <height>3840</height>
                  </samplecharacteristics>
                </video>
                <audio>
                  <samplecharacteristics>
                    <depth>16</depth>
                    <samplerate>44100</samplerate>
                  </samplecharacteristics>
                  <channelcount>1</channelcount>
                </audio>
              </media>
            </file>
            <link>
              <linkclipref>clipitem-15</linkclipref>
              <mediatype>video</mediatype>
              <trackindex>1</trackindex>
              <clipindex>8</clipindex>
            </link>
            <link>
              <linkclipref>clipitem-16</linkclipref>
              <mediatype>audio</mediatype>
              <trackindex>1</trackindex>
              <clipindex>8</clipindex>
              <groupindex>1</groupindex>
            </link>
          </clipitem>
          <clipitem id="clipitem-17">
            <name>temp%2F3e8dacd0-e1e4-4a95-849e-b723280f8811.mp4</name>
            <enabled>TRUE</enabled>
            <duration>123</duration>
            <start>876</start>
            <end>999</end>
            <in>1314</in>
            <out>1437</out>
            <file id="file-1">
              <name>temp%2F3e8dacd0-e1e4-4a95-849e-b723280f8811.mp4</name>
              <pathurl>temp%2F3e8dacd0-e1e4-4a95-849e-b723280f8811.mp4</pathurl>
              <duration>1443</duration>
              <rate>
                <timebase>30</timebase>
                <ntsc>TRUE</ntsc>
              </rate>
              <media>
                <video>
                  <samplecharacteristics>
                    <width>2160</width>
                    <height>3840</height>
                  </samplecharacteristics>
                </video>
                <audio>
                  <samplecharacteristics>
                    <depth>16</depth>
                    <samplerate>44100</samplerate>
                  </samplecharacteristics>
                  <channelcount>1</channelcount>
                </audio>
              </media>
            </file>
            <link>
              <linkclipref>clipitem-17</linkclipref>
              <mediatype>video</mediatype>
              <trackindex>1</trackindex>
              <clipindex>9</clipindex>
            </link>
            <link>
              <linkclipref>clipitem-18</linkclipref>
              <mediatype>audio</mediatype>
              <trackindex>1</trackindex>
              <clipindex>9</clipindex>
              <groupindex>1</groupindex>
            </link>
          </clipitem>
        </track>
      </video>
      <audio>
        <numOutputChannels>2</numOutputChannels>
        <format>
          <samplecharacteristics>
            <depth>16</depth>
            <samplerate>44100</samplerate>
          </samplecharacteristics>
        </format>
        <track>
          <clipitem id="clipitem-2">
            <name>temp%2F3e8dacd0-e1e4-4a95-849e-b723280f8811.mp4</name>
            <enabled>TRUE</enabled>
            <duration>2</duration>
            <start>0</start>
            <end>2</end>
            <in>17</in>
            <out>19</out>
            <file id="file-1"/>
            <link>
              <linkclipref>clipitem-1</linkclipref>
              <mediatype>video</mediatype>
              <trackindex>1</trackindex>
              <clipindex>1</clipindex>
            </link>
            <link>
              <linkclipref>clipitem-2</linkclipref>
              <mediatype>audio</mediatype>
              <trackindex>1</trackindex>
              <clipindex>1</clipindex>
              <groupindex>1</groupindex>
            </link>
          </clipitem>
          <clipitem id="clipitem-4">
            <name>temp%2F3e8dacd0-e1e4-4a95-849e-b723280f8811.mp4</name>
            <enabled>TRUE</enabled>
            <duration>132</duration>
            <start>2</start>
            <end>134</end>
            <in>72</in>
            <out>204</out>
            <file id="file-1"/>
            <link>
              <linkclipref>clipitem-3</linkclipref>
              <mediatype>video</mediatype>
              <trackindex>1</trackindex>
              <clipindex>2</clipindex>
            </link>
            <link>
              <linkclipref>clipitem-4</linkclipref>
              <mediatype>audio</mediatype>
              <trackindex>1</trackindex>
              <clipindex>2</clipindex>
              <groupindex>1</groupindex>
            </link>
          </clipitem>
          <clipitem id="clipitem-6">
            <name>temp%2F3e8dacd0-e1e4-4a95-849e-b723280f8811.mp4</name>
            <enabled>TRUE</enabled>
            <duration>114</duration>
            <start>134</start>
            <end>248</end>
            <in>246</in>
            <out>360</out>
            <file id="file-1"/>
            <link>
              <linkclipref>clipitem-5</linkclipref>
              <mediatype>video</mediatype>
              <trackindex>1</trackindex>
              <clipindex>3</clipindex>
            </link>
            <link>
              <linkclipref>clipitem-6</linkclipref>
              <mediatype>audio</mediatype>
              <trackindex>1</trackindex>
              <clipindex>3</clipindex>
              <groupindex>1</groupindex>
            </link>
          </clipitem>
          <clipitem id="clipitem-8">
            <name>temp%2F3e8dacd0-e1e4-4a95-849e-b723280f8811.mp4</name>
            <enabled>TRUE</enabled>
            <duration>203</duration>
            <start>248</start>
            <end>451</end>
            <in>391</in>
            <out>594</out>
            <file id="file-1"/>
            <link>
              <linkclipref>clipitem-7</linkclipref>
              <mediatype>video</mediatype>
              <trackindex>1</trackindex>
              <clipindex>4</clipindex>
            </link>
            <link>
              <linkclipref>clipitem-8</linkclipref>
              <mediatype>audio</mediatype>
              <trackindex>1</trackindex>
              <clipindex>4</clipindex>
              <groupindex>1</groupindex>
            </link>
          </clipitem>
          <clipitem id="clipitem-10">
            <name>temp%2F3e8dacd0-e1e4-4a95-849e-b723280f8811.mp4</name>
            <enabled>TRUE</enabled>
            <duration>141</duration>
            <start>451</start>
            <end>592</end>
            <in>617</in>
            <out>758</out>
            <file id="file-1"/>
            <link>
              <linkclipref>clipitem-9</linkclipref>
              <mediatype>video</mediatype>
              <trackindex>1</trackindex>
              <clipindex>5</clipindex>
            </link>
            <link>
              <linkclipref>clipitem-10</linkclipref>
              <mediatype>audio</mediatype>
              <trackindex>1</trackindex>
              <clipindex>5</clipindex>
              <groupindex>1</groupindex>
            </link>
          </clipitem>
          <clipitem id="clipitem-12">
            <name>temp%2F3e8dacd0-e1e4-4a95-849e-b723280f8811.mp4</name>
            <enabled>TRUE</enabled>
            <duration>26</duration>
            <start>592</start>
            <end>618</end>
            <in>770</in>
            <out>796</out>
            <file id="file-1"/>
            <link>
              <linkclipref>clipitem-11</linkclipref>
              <mediatype>video</mediatype>
              <trackindex>1</trackindex>
              <clipindex>6</clipindex>
            </link>
            <link>
              <linkclipref>clipitem-12</linkclipref>
              <mediatype>audio</mediatype>
              <trackindex>1</trackindex>
              <clipindex>6</clipindex>
              <groupindex>1</groupindex>
            </link>
          </clipitem>
          <clipitem id="clipitem-14">
            <name>temp%2F3e8dacd0-e1e4-4a95-849e-b723280f8811.mp4</name>
            <enabled>TRUE</enabled>
            <duration>130</duration>
            <start>618</start>
            <end>748</end>
            <in>837</in>
            <out>967</out>
            <file id="file-1"/>
            <link>
              <linkclipref>clipitem-13</linkclipref>
              <mediatype>video</mediatype>
              <trackindex>1</trackindex>
              <clipindex>7</clipindex>
            </link>
            <link>
              <linkclipref>clipitem-14</linkclipref>
              <mediatype>audio</mediatype>
              <trackindex>1</trackindex>
              <clipindex>7</clipindex>
              <groupindex>1</groupindex>
            </link>
          </clipitem>
          <clipitem id="clipitem-16">
            <name>temp%2F3e8dacd0-e1e4-4a95-849e-b723280f8811.mp4</name>
            <enabled>TRUE</enabled>
            <duration>128</duration>
            <start>748</start>
            <end>876</end>
            <in>1096</in>
            <out>1224</out>
            <file id="file-1"/>
            <link>
              <linkclipref>clipitem-15</linkclipref>
              <mediatype>video</mediatype>
              <trackindex>1</trackindex>
              <clipindex>8</clipindex>
            </link>
            <link>
              <linkclipref>clipitem-16</linkclipref>
              <mediatype>audio</mediatype>
              <trackindex>1</trackindex>
              <clipindex>8</clipindex>
              <groupindex>1</groupindex>
            </link>
          </clipitem>
          <clipitem id="clipitem-18">
            <name>temp%2F3e8dacd0-e1e4-4a95-849e-b723280f8811.mp4</name>
            <enabled>TRUE</enabled>
            <duration>123</duration>
            <start>876</start>
            <end>999</end>
            <in>1314</in>
            <out>1437</out>
            <file id="file-1"/>
            <link>
              <linkclipref>clipitem-17</linkclipref>
              <mediatype>video</mediatype>
              <trackindex>1</trackindex>
              <clipindex>9</clipindex>
            </link>
            <link>
              <linkclipref>clipitem-18</linkclipref>
              <mediatype>audio</mediatype>
              <trackindex>1</trackindex>
              <clipindex>9</clipindex>
              <groupindex>1</groupindex>
            </link>
          </clipitem>
        </track>
      </audio>
    </media>
    <duration>999</duration>
  </sequence>
</xmeml>
